<svg width="22" height="16" viewBox="0 0 22 16" fill="none" xmlns="http://www.w3.org/2000/svg">
<path d="M19.3333 0.5H2.66668C1.74746 0.5 1 1.24746 1 2.16668V13.8334C1 14.7525 1.74746 15.5 2.66668 15.5H19.3334C20.2525 15.5 21 14.7525 21 13.8333V2.16668C21 1.24746 20.2525 0.5 19.3333 0.5ZM2.66668 1.33332H19.3334C19.3948 1.33332 19.4489 1.3557 19.5065 1.36836C18.0636 2.68895 13.279 7.06598 11.6047 8.57453C11.4737 8.69254 11.2625 8.83332 11 8.83332C10.7376 8.83332 10.5264 8.69254 10.395 8.57414C8.72078 7.06582 3.93598 2.68855 2.49328 1.36844C2.55102 1.35578 2.60523 1.33332 2.66668 1.33332ZM1.83332 13.8333V2.16668C1.83332 2.08504 1.85793 2.01098 1.87996 1.93637C2.98434 2.94715 6.32277 6.00121 8.48746 7.96969C6.3298 9.82309 2.99051 12.989 1.87734 14.0505C1.8577 13.9796 1.83332 13.9104 1.83332 13.8333ZM19.3333 14.6667H2.66668C2.60012 14.6667 2.54094 14.6435 2.47879 14.6286C3.62906 13.5321 6.98961 10.3479 9.10934 8.53453C9.38566 8.7852 9.63809 9.01375 9.83707 9.19305C10.1805 9.50312 10.5825 9.66668 11 9.66668C11.4175 9.66668 11.8195 9.50309 12.1625 9.19344C12.3616 9.01406 12.6142 8.78531 12.8907 8.53453C15.0105 10.3477 18.3706 13.5316 19.5212 14.6286C19.4591 14.6435 19.4 14.6667 19.3333 14.6667ZM20.1667 13.8333C20.1667 13.9103 20.1423 13.9796 20.1227 14.0505C19.0091 12.9885 15.6702 9.82289 13.5126 7.96973C15.6773 6.00125 19.0153 2.94746 20.12 1.93629C20.1421 2.0109 20.1667 2.085 20.1667 2.16664V13.8333Z" fill="#2E68C0" stroke="#2E68C0" stroke-width="0.2"/>
</svg>
