<svg width="20" height="20" viewBox="0 0 20 20" fill="none" xmlns="http://www.w3.org/2000/svg">
<path d="M4.63384 12.9652C6.40923 15.0874 8.5464 16.7584 10.9857 17.9407C11.9144 18.3809 13.1564 18.903 14.5402 18.9925C14.626 18.9963 14.708 19 14.7938 19C15.7225 19 16.4685 18.6792 17.0764 18.0191C17.0802 18.0153 17.0876 18.0079 17.0914 18.0004C17.3077 17.7393 17.5539 17.5044 17.8112 17.2545C17.9865 17.0866 18.1655 16.9113 18.3371 16.7323C19.1316 15.9043 19.1316 14.8525 18.3297 14.0506L16.088 11.809C15.7076 11.4136 15.2526 11.2047 14.7752 11.2047C14.2977 11.2047 13.839 11.4136 13.4474 11.8052L12.1121 13.1405C11.989 13.0696 11.8622 13.0062 11.7428 12.9465C11.5936 12.8719 11.4556 12.8011 11.3326 12.7228C10.1166 11.9507 9.01262 10.9436 7.95709 9.6494C7.42373 8.97431 7.06567 8.40738 6.81577 7.82926C7.16638 7.51223 7.4946 7.18027 7.81163 6.85578C7.92352 6.74016 8.03915 6.62453 8.15477 6.50891C8.55759 6.10609 8.77392 5.63987 8.77392 5.16618C8.77392 4.6925 8.56132 4.22627 8.15477 3.82346L7.04329 2.71198C6.91275 2.58143 6.78967 2.45462 6.66285 2.32408C6.41669 2.07045 6.15933 1.80937 5.9057 1.57439C5.52154 1.19768 5.07023 1 4.59282 1C4.11913 1 3.6641 1.19768 3.26501 1.57812L1.87006 2.97306C1.36281 3.48031 1.07562 4.09573 1.01594 4.80812C0.945075 5.69954 1.10919 6.64691 1.53438 7.79196C2.1871 9.56361 3.17176 11.2085 4.63384 12.9652ZM1.92601 4.88645C1.97077 4.39039 2.16099 3.97638 2.51905 3.61832L3.90653 2.23083C4.12286 2.02196 4.36157 1.9138 4.59282 1.9138C4.82033 1.9138 5.05158 2.02196 5.26418 2.23829C5.51408 2.46954 5.74905 2.71198 6.00268 2.96933C6.12949 3.09988 6.26004 3.23042 6.39058 3.36469L7.50206 4.47617C7.7333 4.70742 7.85266 4.9424 7.85266 5.17364C7.85266 5.40489 7.7333 5.63987 7.50206 5.87111C7.38643 5.98674 7.27081 6.10609 7.15519 6.22172C6.80832 6.57232 6.48382 6.90427 6.12576 7.2213C6.1183 7.22876 6.11457 7.23249 6.10711 7.23995C5.79754 7.54952 5.84603 7.84418 5.92062 8.06797C5.92435 8.07915 5.92808 8.08661 5.93181 8.0978C6.21901 8.78782 6.6181 9.44426 7.24097 10.2275C8.35991 11.6075 9.53853 12.678 10.8365 13.5023C10.9969 13.6067 11.1684 13.6888 11.3288 13.7708C11.478 13.8454 11.616 13.9163 11.7391 13.9946C11.754 14.0021 11.7652 14.0095 11.7801 14.017C11.9032 14.0804 12.0226 14.1102 12.1419 14.1102C12.4403 14.1102 12.6343 13.92 12.6977 13.8566L14.0926 12.4617C14.3089 12.2453 14.5439 12.1297 14.7752 12.1297C15.0586 12.1297 15.2899 12.305 15.4353 12.4617L17.6844 14.707C18.132 15.1546 18.1282 15.6395 17.6732 16.1131C17.5166 16.281 17.3525 16.4414 17.1772 16.6092C16.9161 16.8628 16.6438 17.1239 16.3976 17.4186C15.9687 17.8811 15.4577 18.0974 14.7975 18.0974C14.7341 18.0974 14.667 18.0937 14.6036 18.0899C13.3802 18.0116 12.2426 17.5342 11.3885 17.1276C9.06857 16.005 7.0321 14.4123 5.3425 12.3908C3.95129 10.7161 3.01511 9.15707 2.39597 7.48612C2.0118 6.46042 1.86633 5.63614 1.92601 4.88645Z" fill="#2E68C0" stroke="#2E68C0" stroke-width="0.2"/>
</svg>
