<svg width="32" height="32" viewBox="0 0 32 32" fill="none" xmlns="http://www.w3.org/2000/svg">
<circle cx="16" cy="16" r="16" fill="#2E68C0"/>
<g clip-path="url(#clip0_73_3977)">
<path d="M22.1253 20.0898C21.9183 19.7636 20.4012 17.4004 19.1046 16.1503C18.0228 15.1116 16.4036 15.0815 16.22 15.0815C16.2033 15.0816 16.1865 15.0822 16.1701 15.0836H15.7775C15.6041 15.0836 14.0502 15.1131 12.9137 16.1362C11.5114 17.3999 9.95988 19.9487 9.85131 20.1283C9.02938 21.4278 8.52563 22.273 8.52563 23.2127C8.52563 24.9059 9.76626 26.0001 11.6862 26.0001H20.3147C22.2341 26.0001 23.4744 24.9049 23.4744 23.2099C23.4744 22.2619 22.9694 21.418 22.1453 20.1197C22.1389 20.1095 22.1322 20.0995 22.1253 20.0898ZM20.3147 24.6889H11.6862C10.9955 24.6889 9.8368 24.4971 9.8368 23.2127C9.8368 22.6638 10.1975 22.0336 10.9631 20.8234C10.9656 20.8194 10.9682 20.8153 10.9707 20.8112C10.986 20.7858 12.5118 18.2635 13.7912 17.1105C14.5713 16.4083 15.7664 16.3949 15.778 16.3948H16.2221C16.2346 16.3948 16.2469 16.3945 16.2593 16.3938C16.4727 16.4018 17.5477 16.473 18.1957 17.0951C19.4441 18.299 21.0211 20.7967 21.037 20.8218C21.044 20.8331 21.0514 20.844 21.0591 20.8547C21.8734 22.1395 22.1633 22.6919 22.1633 23.2097C22.1632 24.4323 21.1579 24.6889 20.3147 24.6889Z" fill="white"/>
<path d="M12.8355 13.4938C14.3152 13.4938 15.4743 11.8478 15.4743 9.74653C15.4744 7.64569 14.3152 6 12.8355 6C11.3558 6 10.1968 7.64569 10.1968 9.74653C10.1968 11.8479 11.3558 13.4938 12.8355 13.4938ZM12.8355 7.31117C13.4634 7.31117 14.1631 8.31132 14.1631 9.74653C14.1631 11.1822 13.4633 12.1827 12.8355 12.1827C12.2076 12.1827 11.5079 11.1822 11.5079 9.74653C11.5079 8.31132 12.2076 7.31117 12.8355 7.31117Z" fill="white"/>
<path d="M9.37976 18.0012C9.63771 18.0012 9.88413 17.9481 10.1152 17.8421C11.2657 17.3071 11.586 15.6282 10.8442 14.0195C10.2686 12.7737 9.20372 11.9368 8.19421 11.9368C7.936 11.9368 7.68923 11.99 7.45987 12.0956C6.30779 12.6287 5.98638 14.308 6.72841 15.9195C7.30401 17.1646 8.36947 18.0011 9.37959 18.0012H9.37976ZM7.91895 15.3702C7.47525 14.4066 7.60121 13.4749 8.00925 13.2861C8.0651 13.2604 8.1255 13.2479 8.19412 13.2479C8.60583 13.2479 9.25721 13.711 9.65362 14.569C10.0973 15.5312 9.97136 16.463 9.56525 16.6518C9.50913 16.6775 9.44847 16.6901 9.37968 16.6901C8.96745 16.69 8.31527 16.2271 7.91895 15.3702Z" fill="white"/>
<path d="M19.1634 13.4938C20.6426 13.4938 21.8014 11.8478 21.8014 9.74653C21.8014 7.64569 20.6426 6 19.1634 6C17.6827 6 16.5229 7.64569 16.5229 9.74653C16.5229 11.8479 17.6827 13.4938 19.1634 13.4938ZM19.1634 7.31117C19.791 7.31117 20.4903 8.31132 20.4903 9.74653C20.4903 11.1822 19.791 12.1827 19.1634 12.1827C18.5347 12.1827 17.8341 11.1822 17.8341 9.74653C17.8341 8.31132 18.5347 7.31117 19.1634 7.31117Z" fill="white"/>
<path d="M24.5404 12.0957C24.3116 11.9898 24.0643 11.936 23.8052 11.936C22.7972 11.936 21.7327 12.7733 21.1567 14.0188C20.4115 15.6268 20.7316 17.3063 21.8882 17.8435C22.1162 17.9482 22.3627 18.0012 22.6207 18.0012C23.6311 18.0012 24.6962 17.1645 25.2713 15.9189C26.014 14.3085 25.6927 12.6291 24.5404 12.0957ZM24.0808 15.3695C23.6848 16.2272 23.033 16.69 22.6207 16.69C22.5518 16.69 22.4911 16.6775 22.4377 16.653C22.0272 16.4624 21.9009 15.5311 22.3465 14.5696C22.7437 13.7106 23.3944 13.2471 23.8052 13.2471C23.8734 13.2471 23.9337 13.2596 23.9894 13.2854C24.3988 13.4751 24.5248 14.4067 24.0808 15.3695Z" fill="white"/>
</g>
<defs>
<clipPath id="clip0_73_3977">
<rect width="20" height="20" fill="white" transform="translate(6 6)"/>
</clipPath>
</defs>
</svg>
